<?xml version="1.0" encoding="UTF-8" standalone="no"?>
<!DOCTYPE svg PUBLIC "-//W3C//DTD SVG 1.1//EN" "http://www.w3.org/Graphics/SVG/1.1/DTD/svg11.dtd">
<svg width="100%" height="100%" viewBox="0 0 673 395" version="1.1" xmlns="http://www.w3.org/2000/svg" xmlns:xlink="http://www.w3.org/1999/xlink" xml:space="preserve" xmlns:serif="http://www.serif.com/" style="fill-rule:evenodd;clip-rule:evenodd;stroke-linejoin:round;stroke-miterlimit:2;">
    <g transform="matrix(1,0,0,1,-157,-104)">
        <g transform="matrix(1,0,0,1,-10.998752,-9.114456)">
            <g id="BuckinghamUBadger.jpg" transform="matrix(4.536247,0.561956,-0.561956,4.536247,156.870858,13.64454)">
                <clipPath id="_clip1">
                    <path d="M151.222,3.375L161.801,88.768L15.89,106.844L5.311,21.45L151.222,3.375Z"/>
                </clipPath>
                <g clip-path="url(#_clip1)">
                    <g opacity="0.78">
                        <path d="M130.907,6.992C131.287,6.797 131.265,7.003 131.631,6.815C132.981,6.12 132.972,6.346 134.477,5.819C135.51,7.149 135.446,7.068 136.54,8.467C137.166,12.598 137.761,12.285 138.743,13.423C141.448,16.135 141.431,16.15 141.627,16.267L141.362,18.451C140.243,21.737 141.353,21.643 143.5,24.316C143.5,24.316 145.398,28.869 147.403,30.607C148.77,34.145 148.921,33.993 150.355,37.533L151.743,39.218L152.215,40.542C154.224,50.721 153.086,51.306 155.518,53.49L154.191,54.5L153.898,55.5L153.854,56.5L153.633,57.5L153.54,58.5C153.459,59.052 153.342,59.008 152.177,65.341L151.538,67.497C150.82,68.997 151.34,69.079 150.604,70.6C149.332,72.952 148.875,75.703 148.549,76.526L148.231,77.397C147.491,81.938 146.983,81.825 147.406,86.502C147.456,87.055 147.622,87.845 145.514,90.511L145.321,91.474C145.303,91.772 144.614,91.887 145.694,93.348C149.742,98.822 149.493,99.07 149.059,101.38C147.235,103.246 147.501,103.349 146.558,105.799L142.459,105.91C144.245,103.189 145.924,103.492 144.685,100.437C143.53,97.589 143.755,97.485 141.553,95.456C139.331,93.41 137.445,91.53 136.512,95.505C136.156,97.025 140.247,101.241 140.47,106.007C139.669,105.951 138.512,105.869 130.436,105.751L130.098,104.5C129.901,102.971 130.133,102.967 129.499,101.501C129.148,100.69 128.136,99.875 128.303,98.453C128.828,93.986 128.633,94.072 128.261,89.564L127.329,88.878C114.835,88.624 120.458,98.569 120.557,105.685C114.953,105.792 115.038,105.768 109.453,105.679L109.852,102.503C109.471,99.391 109.83,93.552 106.482,94.067C98.157,95.349 97.435,96.695 98.314,102.5C98.133,104.151 98.163,104.07 97.528,105.696C91.516,105.765 91.608,105.957 87.468,105.626C86.682,102.532 86.454,102.66 86.369,99.481L85.552,98.468C75.76,96.38 74.91,100.175 74.78,100.404L75.175,101.614C75.798,103.732 75.735,103.639 76.524,105.634C69.996,105.822 70.072,105.793 63.483,105.572C62.794,101.232 62.871,100.149 58.527,100.129C55.213,100.114 54.844,99.15 52.405,101.472C52.485,103.746 52.557,103.675 53.53,105.653C50.446,105.716 50.487,106.141 42.477,105.621C42.477,105.621 35.495,102.993 35.561,105.709L31.464,105.695C29.97,98.343 26.46,92.347 25.834,91.279C24.564,89.435 24.632,89.49 22.895,87.967L23.455,87.445L23.3,86.475C23.066,85.816 21.125,80.35 19.043,78.839C18.52,78.46 17.646,78.442 17.372,77.857C17.164,77.411 18.158,76.945 17.95,76.5L16.062,75.156C16.668,71.827 16.004,71.901 15.049,68.604C12.896,58.048 12.153,58.299 11.63,57.541L12.509,55.501C14.322,50.695 13.14,50.565 13.746,45.473C13.82,43.95 13.888,43.991 13.472,42.498C13.351,37.266 13.057,37.335 12.676,34.476C13.922,31.77 13.626,31.698 12.949,28.762C13.926,25.753 13.658,25.775 13.591,22.547C14.247,21.637 15.566,19.811 27.464,24.591C31.506,26.214 30.51,27.567 34.391,29.698C38.711,32.07 38.362,35.821 45.512,36.185C46.508,36.236 46.037,37.906 57.48,39.664C58.131,39.764 73.467,46.17 66.737,49.879C62.328,52.309 61.407,56.71 61.254,57.442C60.877,59.493 60.806,59.403 60.677,61.538C61.966,66.264 62.382,66.001 64.445,70.532C64.603,70.88 64.964,71.673 64.815,75.303C73.153,84.528 77.884,84.369 89.37,85.167C99.113,81.257 99.113,81.264 99.3,81.172C99.696,80.866 102.629,78.603 103.845,76.863C105.798,74.426 105.962,74.401 109.727,58.542C110.024,57.291 109.81,57.325 108.895,51.456C108.554,49.71 108.687,49.74 107.664,48.312C106.017,47.434 106.108,47.451 104.442,46.594C100.485,44.556 94.136,45.039 99.946,37.899C107.389,28.753 115.64,27.6 126.881,10.797C129.183,7.86 129.336,8.083 130.907,6.992ZM132.091,50.19C130.478,52.423 127.877,56.662 124.549,57.654C108.635,62.396 120.282,72.946 126.479,69.464C157.109,52.25 135.597,33.894 135.506,38.502C135.383,44.749 135.301,44.786 132.091,50.19ZM46.49,68.658C41.554,66.907 41.42,67.528 36.686,65.225C29.679,59.875 31.156,58.189 30.224,55.605C25.538,42.617 24.815,59.484 27.039,63.706C29.448,68.279 26.627,69.693 31.639,74.385C31.806,74.542 31.796,74.527 33.76,76.301L35.633,78.388C40.574,80.581 40.303,81.712 47.505,81.659C48.324,81.653 55.572,79.553 55.091,74.53C54.475,68.098 49.669,68.859 46.49,68.658ZM108.574,35.667L107.143,37.005C105.91,39.499 105.753,39.351 105.652,39.566C104.289,42.457 110.176,40.727 110.561,40.614C112.793,39.958 116.045,34.567 108.574,35.667ZM49.551,46.456C51.935,47.85 54.04,48.547 54.449,48.683C59.243,50.271 65.025,46.914 59.527,45.42C53.951,43.905 53.326,42.783 49.551,46.456ZM70.324,14.534C71.399,12.556 71.408,12.656 71.496,12.489C76.063,11.123 76.941,11.752 78.429,11.584C80.27,14.948 79.519,15.175 81.027,18.77C82.061,21.237 81.211,22.739 81.809,24.402C83.973,30.422 83.798,30.416 85.138,36.605C86.417,39.55 86.341,39.477 87.261,42.47C87.112,42.688 86.183,45.009 83.468,45.254C77.829,45.764 77.863,39.46 77.462,37.506C76.382,32.245 73.339,30.313 73.381,26.5C73.386,26.089 73.395,25.269 72.937,21.388C71.683,17.878 71.353,18.11 70.324,14.534Z" style="fill:url(#_Linear2);"/>
                        <g opacity="0.44">
                            <path d="M87.606,48.744C90.231,49.648 90.201,49.676 90.435,49.726C92.11,49.913 91.989,50.123 93.662,50.086C93.88,50.082 93.854,50.148 96.253,50.922C97.099,49.958 97.944,48.993 98.789,48.029C101.032,49.062 100.925,49.269 103.456,49.346C103.535,49.776 104.522,55.113 106.5,53.89C106.944,53.616 106.775,52.774 107.219,52.5L108.895,51.456C109.81,57.325 110.024,57.291 109.727,58.542C105.962,74.401 105.798,74.426 103.845,76.863L102.5,76.605C99.138,79.163 98.498,77.656 94.815,79.841C90.431,82.441 85.761,81.53 89.37,85.167C77.884,84.369 73.153,84.528 64.815,75.303C64.964,71.673 64.603,70.88 64.445,70.532C62.382,66.001 61.966,66.264 60.677,61.538C60.806,59.403 60.877,59.493 61.254,57.442L62.991,58.5L63.066,59.5L62.887,60.5L63.295,61.5C64.896,63.178 65.172,62.527 67.495,62.021C70.429,62.515 70.872,62.828 72.488,60.334L74.569,60.645C74.707,60.708 76.297,61.431 76.297,61.431C76.956,61.186 76.374,60.65 77.054,60.397C77.22,58.538 77.332,58.664 77.5,56.841C76.858,56.82 76.217,56.799 75.575,56.777C76.259,54.491 76.191,54.539 77.5,52.484C78.164,52.478 78.829,52.473 79.494,52.467C84.187,52.174 84.167,51.888 87.606,48.744Z" style="fill:rgb(148,67,0);"/>
                            <path d="M118.563,7.321C118.83,7.729 122.271,12.99 124.329,9.277C125.061,7.957 125.331,9.21 125.5,9.199L126.881,10.797C115.64,27.6 107.389,28.753 99.946,37.899C94.136,45.039 100.485,44.556 104.442,46.594C106.108,47.451 106.017,47.434 107.664,48.312C106.875,48.948 107.354,49.242 106.5,49.93C106.441,49.977 106.06,50.284 105.563,50.005C105.381,49.903 105.715,49.463 105.523,49.382C105.523,49.382 103.621,49.349 103.456,49.346C100.925,49.269 101.032,49.062 98.789,48.029C97.317,46.648 97.356,46.706 95.495,45.741L94.459,44.572C94.016,44.233 94.02,43.488 93.576,43.149C93.526,43.11 90.898,43.16 89.52,43.393C88.032,43.645 88.291,42.891 87.261,42.47C86.341,39.477 86.417,39.55 85.138,36.605C83.798,30.416 83.973,30.422 81.809,24.402C81.211,22.739 82.061,21.237 81.027,18.77C79.519,15.175 80.27,14.948 78.429,11.584C78.705,10.546 78.762,10.627 79.329,9.427C79.857,9.664 79.85,10.573 80.378,10.81C80.839,11.016 85.291,9.697 85.711,9.573C85.968,10.231 86.226,10.89 86.484,11.548C89.004,12.099 88.946,12.284 91.565,11.821C96.763,10.547 96.956,11.153 101.507,8.173C102.506,8.288 103.505,8.404 104.504,8.519C105.24,8.658 105.975,8.797 106.71,8.936C110.63,8.245 110.488,7.418 114.501,7.769C114.827,7.798 114.802,7.736 118.563,7.321Z" style="fill:rgb(148,67,0);"/>
                            <path d="M27.464,24.591C15.566,19.811 17.469,19.726 17.9,19.919C25.112,19.755 25.2,19.932 31.499,23.517L32.574,24.283C34.73,27.747 36.881,25.508 37.424,25.419C37.845,25.254 38.266,25.089 38.687,24.924C38.883,25.011 39.821,23.796 40.574,26.448C41.007,27.975 41.847,27.214 42.44,27.283C50.013,28.791 49.716,30.85 49.62,31.51C49.514,32.243 52.694,37.1 56.749,31.559C58.078,29.742 58.482,30.609 60.548,31.451C61.017,31.642 61.511,33.245 61.564,33.414C60.285,33.846 60.413,33.94 59.132,34.236C57.573,34.596 58.039,35.112 57.266,36.933C66.707,38.117 65.864,42.309 68.611,42.293C69.783,42.286 73.163,41.836 73.537,42.03C74.045,42.293 73.854,43.272 74.362,43.535L74.935,45.903C72.71,46.848 71.855,46.158 71.422,48.601C71.34,49.064 71.805,49.493 71.788,49.963C71.788,49.97 67.912,50.902 69.993,52.1C72.534,53.564 72.672,52.737 75.511,51.987L77.5,52.484C76.191,54.539 76.259,54.491 75.575,56.777C75.489,56.835 74.499,57.498 74.499,57.498C74.102,57.546 73.018,57.171 73.839,58.5C73.993,58.749 74.346,58.831 74.5,59.08L74.569,60.645L72.488,60.334C72.329,60.294 70.5,59.83 70.5,59.83C69.831,59.745 69.169,60.213 68.5,60.128L67.495,62.021C65.172,62.527 64.896,63.178 63.295,61.5L62.887,60.5L63.066,59.5L62.991,58.5L61.254,57.442C61.407,56.71 62.328,52.309 66.737,49.879C73.467,46.17 58.131,39.764 57.48,39.664C46.037,37.906 46.508,36.236 45.512,36.185C38.362,35.821 38.711,32.07 34.391,29.698C30.51,27.567 31.506,26.214 27.464,24.591Z" style="fill:rgb(148,67,0);"/>
                            <path d="M36.686,65.225C41.42,67.528 41.554,66.907 46.49,68.658C49.669,68.859 54.475,68.098 55.091,74.53C55.572,79.553 48.324,81.653 47.505,81.659C40.303,81.712 40.574,80.581 35.633,78.388C35.009,77.692 34.384,76.997 33.76,76.301C31.796,74.527 31.806,74.542 31.639,74.385C26.627,69.693 29.448,68.279 27.039,63.706C24.815,59.484 25.538,42.617 30.224,55.605C31.156,58.189 29.679,59.875 36.686,65.225Z" style="fill:rgb(148,67,0);"/>
                            <path d="M132.091,50.19C135.301,44.786 135.383,44.749 135.506,38.502C135.597,33.894 157.109,52.25 126.479,69.464C120.282,72.946 108.635,62.396 124.549,57.654C127.877,56.662 130.478,52.423 132.091,50.19Z" style="fill:rgb(148,67,0);"/>
                            <path d="M72.937,21.388C73.395,25.269 73.386,26.089 73.381,26.5C73.339,30.313 76.382,32.245 77.462,37.506C77.863,39.46 77.829,45.764 83.468,45.254C86.183,45.009 87.112,42.688 87.261,42.47C88.291,42.891 88.032,43.645 89.52,43.393C90.898,43.16 93.526,43.11 93.576,43.149C94.02,43.488 94.016,44.233 94.459,44.572C94.211,44.625 94.196,43.955 93.948,44.008C93.27,44.153 92.807,44.828 92.155,45.064C90.005,45.84 87.916,44.751 89.206,46.679C90.123,48.049 95.027,45.942 95.495,45.741C97.356,46.706 97.317,46.648 98.789,48.029C97.944,48.993 97.099,49.958 96.253,50.922C93.854,50.148 93.88,50.082 93.662,50.086C91.989,50.123 92.11,49.913 90.435,49.726C89.018,49.008 89.149,48.896 87.606,48.744C84.167,51.888 84.187,52.174 79.494,52.467C80.499,50.762 80.869,50.738 80.17,48.873C79.734,47.712 79.609,49.168 78.465,49.604C77.85,49.838 77.152,49.485 76.494,49.489C74.838,49.5 75.556,50.291 75.511,51.987C72.672,52.737 72.534,53.564 69.993,52.1C67.912,50.902 71.788,49.97 71.788,49.963C71.805,49.493 71.34,49.064 71.422,48.601C71.855,46.158 72.71,46.848 74.935,45.903C74.744,45.114 74.553,44.324 74.362,43.535C73.854,43.272 74.045,42.293 73.537,42.03C73.163,41.836 69.783,42.286 68.611,42.293C65.864,42.309 66.707,38.117 57.266,36.933C58.039,35.112 57.573,34.596 59.132,34.236C60.413,33.94 60.285,33.846 61.564,33.414C61.593,33.42 70.513,36.7 67.702,33.568C66.763,32.523 66.658,32.602 66.651,32.481C66.599,31.612 67.613,32.07 67.558,31.147L66.451,30.556C66.798,29.865 67.145,29.174 67.492,28.482C69.34,27.065 69.354,27.252 69.5,27.125L70.002,26.5L70.669,25.5L70.478,24.605C71.298,23.532 72.117,22.46 72.937,21.388Z" style="fill:rgb(148,67,0);"/>
                            <path d="M61.497,14.436C62.145,14.403 62.793,14.369 63.44,14.335C63.949,14.413 66.964,14.88 69.872,14.319L70.324,14.534C71.353,18.11 71.683,17.878 72.937,21.388C72.117,22.46 71.298,23.532 70.478,24.605C67.453,24.019 66.773,24.279 66.474,24.393C62.205,26.024 62.117,24.615 57.509,24.484C57.531,24.242 57.445,24.284 57.652,21.445C52.841,19.304 52.07,23.437 50.468,21.556C49.556,20.485 51.59,20.305 50.781,19.215C50.72,19.133 50.752,19.76 49.5,19.248C49.34,19.182 49.426,19.106 48.506,17.333C48.832,17.327 51.529,17.282 52.513,16.618C56.458,13.953 56.972,15.824 61.497,14.436Z" style="fill:rgb(148,67,0);"/>
                            <path d="M33.503,15.452C36.9,14.723 46.909,15.706 46.507,17.091C42.494,16.743 42.467,17.419 38.594,16.342C38.377,16.281 32.71,18.316 32.726,19.448C32.752,21.277 35.273,21.804 39.496,21.303L40.63,21.281C41.01,21.594 41.39,21.907 41.771,22.22C41.903,22.403 43.425,24.505 43.425,24.505C43.603,24.802 43.161,25.243 43.339,25.54C43.04,26.121 42.74,26.702 42.44,27.283C41.847,27.214 41.007,27.975 40.574,26.448C39.821,23.796 38.883,25.011 38.687,24.924C38.266,25.089 37.845,25.254 37.424,25.419C36.881,25.508 34.73,27.747 32.574,24.283C32.216,24.028 31.857,23.772 31.499,23.517C25.2,19.932 25.112,19.755 17.9,19.919C17.176,17.42 30.056,17.008 30.135,17.012C30.878,17.053 30.685,17.531 31.482,17.48C32.127,17.438 31.813,16.904 32.5,16.86L33.503,15.452Z" style="fill:rgb(148,67,0);"/>
                            <path d="M46.507,17.091L48.506,17.333C49.426,19.106 49.34,19.182 49.5,19.248C50.752,19.76 50.72,19.133 50.781,19.215C51.59,20.305 49.556,20.485 50.468,21.556C52.07,23.437 52.841,19.304 57.652,21.445C57.445,24.284 57.531,24.242 57.509,24.484C56.838,24.82 56.167,25.155 55.496,25.491C54.638,23.828 54.732,23.721 54.572,23.699C53.864,23.606 53.177,24.197 52.469,24.104C49.945,24.283 50.065,24.655 47.55,24.783C46.922,24.198 46.385,24.872 45.203,22.597C45.075,22.352 44.627,21.489 41.771,22.22C41.39,21.907 41.01,21.594 40.63,21.281C40.252,21.288 39.874,21.296 39.496,21.303C35.273,21.804 32.752,21.277 32.726,19.448C32.71,18.316 38.377,16.281 38.594,16.342C42.467,17.419 42.494,16.743 46.507,17.091Z" style="fill:rgb(148,67,0);"/>
                            <path d="M47.55,24.783C50.065,24.655 49.945,24.283 52.469,24.104C51.083,25.795 49.8,26.082 51.536,27.468C51.536,27.468 54.097,27.839 54.32,27.871C56.915,28.166 56.83,28.074 59.462,27.954C62.698,27.808 62.362,28.762 63.21,29.535C64.669,30.521 64.7,30.305 66.451,30.556L67.558,31.147C67.613,32.07 66.599,31.612 66.651,32.481C66.658,32.602 66.763,32.523 67.702,33.568C70.513,36.7 61.593,33.42 61.564,33.414C61.511,33.245 61.017,31.642 60.548,31.451C58.482,30.609 58.078,29.742 56.749,31.559C52.694,37.1 49.514,32.243 49.62,31.51C49.716,30.85 50.013,28.791 42.44,27.283C42.74,26.702 43.04,26.121 43.339,25.54C45.605,25.782 45.564,25.737 47.55,24.783Z" style="fill:rgb(148,67,0);"/>
                            <path d="M116.586,11.288L117.461,12.554C120.098,17.007 114.506,17.459 113.376,19.183C112.435,20.618 112.239,20.357 110.527,20.303L110.543,19.5C110.63,19.348 111.631,17.598 111.631,17.598C111.74,17.407 113.836,13.747 109.527,15.833C108.885,16.098 108.242,16.362 107.6,16.627C107.143,16.459 107.004,15.784 106.547,15.617C105.198,15.123 105.916,17.199 104.523,16.958C103.896,16.849 101.732,10.56 100.521,17.37C98.862,16.58 98.809,16.698 97.587,15.252C97.833,14.874 98.617,13.672 101.795,11.5C106.771,13.38 107.141,13.641 111.603,10.687C113.89,9.173 113.97,10.337 116.586,11.288Z" style="fill:rgb(148,67,0);"/>
                            <path d="M93.496,14.449L94.579,14.315C96.14,14.689 96.085,14.63 97.587,15.252C98.809,16.698 98.862,16.58 100.521,17.37C100.93,17.384 103.504,17.473 105.465,18.675C104.152,20.147 104.168,20.144 104.047,20.264C103.42,20.884 103.26,20.59 102.612,21.231C94.12,19.662 93.818,19.14 93.433,18.477C93.266,18.189 93.756,17.778 93.589,17.49C92.122,16.449 92.216,16.464 90.527,15.827C92.403,14.718 92.384,14.712 92.553,14.629C93.009,14.404 93.021,14.683 93.496,14.449Z" style="fill:rgb(148,67,0);"/>
                            <path d="M103.845,76.863C102.629,78.603 99.696,80.866 99.3,81.172C99.113,81.264 99.113,81.257 89.37,85.167C85.761,81.53 90.431,82.441 94.815,79.841C98.498,77.656 99.138,79.163 102.5,76.605L103.845,76.863Z" style="fill:rgb(148,67,0);"/>
                            <path d="M81.906,69.275C79.556,70.081 79.584,69.964 77.5,71.326L76.5,70.988C76.134,70.953 75.866,71.489 75.5,71.454C74.373,71.347 74.621,70.739 73.421,70.673C72.983,70.649 68.508,71.955 69.591,69.633C71.014,66.582 79.34,65.89 80.582,67.222C80.716,67.365 80.68,67.374 81.906,69.275Z" style="fill:rgb(148,67,0);"/>
                            <path d="M130.907,6.992C129.336,8.083 129.183,7.86 126.881,10.797L125.5,9.199C125.331,9.21 125.061,7.957 124.329,9.277C122.271,12.99 118.83,7.729 118.563,7.321C121.63,7.312 121.54,7.135 124.48,6.387C128.986,5.24 129.033,5.037 129.468,5.339C130.069,5.755 130.307,6.576 130.907,6.992Z" style="fill:rgb(148,67,0);"/>
                            <path d="M47.599,13.586L48.051,13.305C48.275,13.545 47.52,15.222 50.525,14.644C52.265,14.309 55.584,10.983 58.5,13.678L59.977,13.402L61.497,14.436C56.972,15.824 56.458,13.953 52.513,16.618C51.529,17.282 48.832,17.327 48.506,17.333L46.507,17.091C46.909,15.706 47.252,15.836 47.292,14.389C47.305,13.935 47.586,14.073 47.599,13.586Z" style="fill:rgb(148,67,0);"/>
                            <path d="M109.527,15.833C113.836,13.747 111.74,17.407 111.631,17.598C111.631,17.598 110.63,19.348 110.543,19.5L110.527,20.303L109.529,20.199C107.56,19.146 107.591,19.271 105.465,18.675C103.504,17.473 100.93,17.384 100.521,17.37C101.732,10.56 103.896,16.849 104.523,16.958C105.916,17.199 105.198,15.123 106.547,15.617C107.004,15.784 107.143,16.459 107.6,16.627C108.242,16.362 108.885,16.098 109.527,15.833Z" style="fill:rgb(148,67,0);"/>
                            <path d="M83.782,15.284C87.031,13.721 87.023,15.397 90.527,15.827C92.216,16.464 92.122,16.449 93.589,17.49C93.25,17.779 93.274,17.747 90.572,19.778C88.732,18.302 88.864,17.803 87.58,18.123C86.422,18.412 86.357,18.35 85.583,17.404L85.327,16.877C84.812,16.346 84.297,15.815 83.782,15.284Z" style="fill:rgb(148,67,0);"/>
                            <path d="M84.468,53.477C89.983,50.385 94.661,54.417 92.416,55.324C88.976,56.713 86.071,55.508 85.565,55.298C85.2,54.691 84.834,54.084 84.468,53.477Z" style="fill:rgb(148,67,0);"/>
                            <path d="M107.664,48.312C108.687,49.74 108.554,49.71 108.895,51.456L107.219,52.5C106.775,52.774 106.944,53.616 106.5,53.89C104.522,55.113 103.535,49.776 103.456,49.346C103.621,49.349 105.523,49.382 105.523,49.382C105.715,49.463 105.381,49.903 105.563,50.005C106.06,50.284 106.441,49.977 106.5,49.93C107.354,49.242 106.875,48.948 107.664,48.312Z" style="fill:rgb(148,67,0);"/>
                            <path d="M85.583,17.404C86.357,18.35 86.422,18.412 87.58,18.123C88.864,17.803 88.732,18.302 90.572,19.778C89.215,20.257 87.857,20.735 86.5,21.213C86.003,21.45 85.316,23.209 84.316,21.5C83.705,20.455 83.52,20.602 83.525,20.5C83.564,19.72 84.378,20.27 84.417,19.5C84.951,19.053 85.066,19.985 85.615,19.526C85.745,19.417 85.612,19.373 85.583,17.404Z" style="fill:rgb(148,67,0);"/>
                            <path d="M99.376,32.297C99.137,32.682 99.852,33.25 99.613,33.635C99.514,33.795 99.292,33.344 97.659,34.939C96.512,36.058 93.367,35.297 91.487,35.354C92.009,34.896 91.922,34.899 92.489,34.473C93.662,33.594 94.068,34.233 94.791,32.982C95.285,32.128 95.886,31.885 99.376,32.297Z" style="fill:rgb(148,67,0);"/>
                            <path d="M75.511,51.987C75.556,50.291 74.838,49.5 76.494,49.489C77.152,49.485 77.85,49.838 78.465,49.604C79.609,49.168 79.734,47.712 80.17,48.873C80.869,50.738 80.499,50.762 79.494,52.467C78.829,52.473 78.164,52.478 77.5,52.484L75.511,51.987Z" style="fill:rgb(148,67,0);"/>
                            <path d="M84.468,53.477C84.834,54.084 85.2,54.691 85.565,55.298C80.264,56.54 79.043,56.633 78.467,56.678C78.637,56.368 78.163,55.936 78.333,55.626C79.168,54.105 83.952,53.538 84.468,53.477Z" style="fill:rgb(148,67,0);"/>
                            <path d="M100.3,25.294C97.412,24.608 97.382,24.729 96.691,24.294C90.683,20.514 102.803,22.588 101.555,24.539C101.292,24.95 100.563,24.882 100.3,25.294Z" style="fill:rgb(148,67,0);"/>
                            <path d="M89.09,28.767C90.546,28.722 92.002,28.677 93.458,28.632C93.736,28.957 94.015,29.283 94.293,29.609C91.601,31.076 91.471,30.503 88.469,31.396C89.774,30.475 89.503,30.255 89.09,28.767Z" style="fill:rgb(148,67,0);"/>
                            <path d="M45.449,32.161C45.131,32.245 41.882,33.097 41.387,31.532C40.859,29.864 48.352,29.678 45.449,32.161Z" style="fill:rgb(148,67,0);"/>
                            <path d="M67.492,28.482C67.145,29.174 66.798,29.865 66.451,30.556C64.7,30.305 64.669,30.521 63.21,29.535C63.46,29.27 63.063,28.711 63.313,28.446C63.543,28.203 63.87,27.857 67.492,28.482Z" style="fill:rgb(148,67,0);"/>
                            <path d="M74.362,43.535C74.553,44.324 74.744,45.114 74.935,45.903L74.362,43.535Z" style="fill:rgb(148,67,0);"/>
                            <path d="M75.575,56.777C76.217,56.799 76.858,56.82 77.5,56.841C77.332,58.664 77.22,58.538 77.054,60.397C76.374,60.65 76.956,61.186 76.297,61.431C76.297,61.431 74.707,60.708 74.569,60.645L74.5,59.08C74.346,58.831 73.993,58.749 73.839,58.5C73.018,57.171 74.102,57.546 74.499,57.498C74.499,57.498 75.489,56.835 75.575,56.777Z" style="fill:rgb(148,67,0);"/>
                            <path d="M52.469,24.104C53.177,24.197 53.864,23.606 54.572,23.699C54.732,23.721 54.638,23.828 55.496,25.491C53.802,26.442 53.694,26.35 53.67,26.516C53.601,27.012 54.39,27.375 54.32,27.871C54.097,27.839 51.536,27.468 51.536,27.468C49.8,26.082 51.083,25.795 52.469,24.104Z" style="fill:rgb(148,67,0);"/>
                            <path d="M41.771,22.22C44.627,21.489 45.075,22.352 45.203,22.597C46.385,24.872 46.922,24.198 47.55,24.783C45.564,25.737 45.605,25.782 43.339,25.54C43.161,25.243 43.603,24.802 43.425,24.505C43.425,24.505 41.903,22.403 41.771,22.22Z" style="fill:rgb(148,67,0);"/>
                            <path d="M94.459,44.572L95.495,45.741C95.027,45.942 90.123,48.049 89.206,46.679C87.916,44.751 90.005,45.84 92.155,45.064C92.807,44.828 93.27,44.153 93.948,44.008C94.196,43.955 94.211,44.625 94.459,44.572Z" style="fill:rgb(148,67,0);"/>
                            <path d="M72.488,60.334C70.872,62.828 70.429,62.515 67.495,62.021L68.5,60.128C69.169,60.213 69.831,59.745 70.5,59.83C70.5,59.83 72.329,60.294 72.488,60.334Z" style="fill:rgb(148,67,0);"/>
                            <path d="M138.792,53.996C138.601,52.14 136.608,51.157 138.5,51.157C139.82,51.157 140.423,53.026 139.99,53.5C139.699,53.819 139.083,53.677 138.792,53.996Z" style="fill:rgb(148,67,0);"/>
                            <path d="M83.782,15.284C84.297,15.815 84.812,16.346 85.327,16.877C83.572,17.897 83.586,18.067 83.437,17.976C83.437,17.976 83.755,15.499 83.782,15.284Z" style="fill:rgb(148,67,0);"/>
                            <path d="M87.606,48.744C89.149,48.896 89.018,49.008 90.435,49.726C90.201,49.676 90.231,49.648 87.606,48.744Z" style="fill:rgb(148,67,0);"/>
                            <path d="M57.509,24.484C62.117,24.615 62.205,26.024 66.474,24.393C66.773,24.279 67.453,24.019 70.478,24.605L70.669,25.5L70.002,26.5L69.5,27.125C69.354,27.252 69.34,27.065 67.492,28.482C63.87,27.857 63.543,28.203 63.313,28.446C63.063,28.711 63.46,29.27 63.21,29.535C62.362,28.762 62.698,27.808 59.462,27.954C56.83,28.074 56.915,28.166 54.32,27.871C54.39,27.375 53.601,27.012 53.67,26.516C53.694,26.35 53.802,26.442 55.496,25.491C56.167,25.155 56.838,24.82 57.509,24.484Z" style="fill:rgb(148,67,0);"/>
                            <path d="M105.465,18.675C107.591,19.271 107.56,19.146 109.529,20.199C107.622,22.066 107.827,22.237 105.518,23.467C103.856,22.275 103.807,22.353 103.711,22.205C103.281,21.549 103.176,21.731 102.612,21.231C103.26,20.59 103.42,20.884 104.047,20.264C104.168,20.144 104.152,20.147 105.465,18.675Z" style="fill:rgb(148,67,0);"/>
                        </g>
                    </g>
                </g>
            </g>
        </g>
    </g>
    <defs>
        <linearGradient id="_Linear2" x1="0" y1="0" x2="1" y2="0" gradientUnits="userSpaceOnUse" gradientTransform="matrix(-12.513781,-103.41534,103.41534,-12.513781,88.863666,98.216105)"><stop offset="0" style="stop-color:rgb(250,245,242);stop-opacity:1"/><stop offset="1" style="stop-color:rgb(250,245,242);stop-opacity:0"/></linearGradient>
    </defs>
</svg>
