<?xml version="1.0" encoding="UTF-8" standalone="no"?><!DOCTYPE svg PUBLIC "-//W3C//DTD SVG 1.1//EN" "http://www.w3.org/Graphics/SVG/1.1/DTD/svg11.dtd"><svg width="100%" height="100%" viewBox="0 0 2821 2246" version="1.1" xmlns="http://www.w3.org/2000/svg" xmlns:xlink="http://www.w3.org/1999/xlink" xml:space="preserve" xmlns:serif="http://www.serif.com/" style="fill-rule:evenodd;clip-rule:evenodd;stroke-linecap:round;stroke-linejoin:round;stroke-miterlimit:1.5;"><g><path d="M1821.532,101.989l824.803,476.2c227.611,131.411 227.611,344.789 0,476.2l-824.803,476.2c-227.611,131.411 -597.192,131.411 -824.803,-0l-824.803,-476.2c-227.611,-131.411 -227.611,-344.789 0,-476.2l824.803,-476.2c227.611,-131.411 597.192,-131.411 824.803,-0Zm-1092.752,468.447c-194.16,178.878 -156.524,417.909 112.908,573.466c313.18,180.814 821.704,180.814 1134.883,0c269.433,-155.557 307.069,-394.589 112.908,-573.466c54.927,-132.211 -6.895,-277.354 -185.468,-380.453c-273.133,-157.693 -716.631,-157.693 -989.764,0c-178.573,103.099 -240.396,248.242 -185.468,380.453Zm-556.854,198.233c-45.522,26.282 -45.522,68.958 0,95.24c45.522,26.282 119.438,26.282 164.961,0c45.522,-26.282 45.522,-68.958 0,-95.24c-45.522,-26.282 -119.438,-26.282 -164.961,0Zm1154.724,666.68c-45.522,26.282 -45.522,68.958 -0,95.24c45.522,26.282 119.438,26.282 164.961,-0c45.522,-26.282 45.522,-68.958 -0,-95.24c-45.522,-26.282 -119.438,-26.282 -164.961,0Zm1154.724,-666.68c-45.522,26.282 -45.522,68.958 0,95.24c45.522,26.282 119.438,26.282 164.961,0c45.522,-26.282 45.522,-68.958 0,-95.24c-45.522,-26.282 -119.438,-26.282 -164.961,-0Z" style="fill:#fff;"/><path d="M2052.758,634.574c108.872,147.31 59.291,324.482 -148.746,444.592c-273.133,157.693 -716.631,157.693 -989.764,-0c-208.036,-120.11 -257.618,-297.282 -148.746,-444.592c34.067,46.095 83.649,89.265 148.746,126.849c273.133,157.693 716.631,157.693 989.764,-0c65.097,-37.584 114.678,-80.754 148.746,-126.849Z" style="fill:#fff;"/><path d="M2103.869,524.054l0,310.574l-372.985,0c62.356,-18.627 120.862,-43.029 173.128,-73.205c115.246,-66.537 181.865,-150.586 199.857,-237.369Zm-1016.492,310.574l-374.758,0l1.073,-313.534l0.105,0c17.079,87.83 83.896,173.035 200.451,240.329c52.267,30.176 110.772,54.578 173.128,73.205Z" style="fill:#fff;stroke:#fff;stroke-width:4.17px;"/><path d="M1002.664,241.03c224.335,-129.52 588.597,-129.52 812.932,-0c224.335,129.52 224.335,339.827 0,469.347c-224.335,129.52 -588.597,129.52 -812.932,0c-224.335,-129.52 -224.335,-339.827 -0,-469.347Z" style="fill:#fff;"/><path d="M2815.176,921.647c0,0 -0,131.045 -0,260.152c-0,153.994 -82.155,296.29 -215.518,373.288c-264.535,152.73 -710.475,410.193 -975.011,562.923c-133.363,76.997 -297.673,76.997 -431.035,-0c-264.535,-152.73 -710.475,-410.193 -975.011,-562.923c-133.363,-76.997 -215.518,-219.293 -215.518,-373.288c-0,-129.107 -0,-260.152 -0,-260.152c10.656,76.983 66.936,152.248 168.841,211.083l824.803,476.2c113.805,65.706 263.103,98.558 412.402,98.558c149.298,0 298.596,-32.852 412.402,-98.558l824.803,-476.2c101.905,-58.835 158.185,-134.1 168.841,-211.083Z" style="fill:#fff;stroke:#fff;stroke-width:4.17px;"/></g></svg>